HIERARCHY
ROOT Hips
{
    OFFSET   0.000000   0.000000   0.000000
    CHANNELS 6 Xposition Yposition Zposition Zrotation Xrotation Yrotation
    JOINT Chest
    {
        OFFSET   0.000000   8.007240   0.000000
        CHANNELS 3 Zrotation Xrotation Yrotation
        JOINT Chest2
        {
            OFFSET   0.000000  22.077100   0.000000
            CHANNELS 3 Zrotation Xrotation Yrotation
            JOINT Neck
            {
                OFFSET   0.000000  23.254800   0.000000
                CHANNELS 3 Zrotation Xrotation Yrotation
                JOINT Head
                {
                    OFFSET   0.000000  14.370000   1.956600
                    CHANNELS 3 Zrotation Xrotation Yrotation
                    End Site
                    {
                        OFFSET   0.000000  19.566000   0.000000
                    }
                }
            }
            JOINT LeftCollar
            {
                OFFSET   3.911900  19.017000  -0.467064
                CHANNELS 3 Zrotation Xrotation Yrotation
                JOINT LeftShoulder
                {
                    OFFSET  10.383700   0.000000   0.000000
                    CHANNELS 3 Zrotation Xrotation Yrotation
                    JOINT LeftElbow
                    {
                        OFFSET  26.662100   0.001476   0.000517
                        CHANNELS 3 Zrotation Xrotation Yrotation
                        JOINT LeftWrist
                        {
                            OFFSET  28.869000  -0.000025  -0.000106
                            CHANNELS 3 Zrotation Xrotation Yrotation
                            JOINT LeftFinger0
                            {
                                OFFSET   2.044660  -2.323460   3.252850
                                CHANNELS 3 Zrotation Xrotation Yrotation
                                JOINT LeftFinger01
                                {
                                    OFFSET   3.088130   0.000000   0.000000
                                    CHANNELS 3 Zrotation Xrotation Yrotation
                                    JOINT LeftFinger02
                                    {
                                        OFFSET   2.639460   0.000000   0.000000
                                        CHANNELS 3 Zrotation Xrotation Yrotation
                                        End Site
                                        {
                                            OFFSET   2.582190   0.000000   0.000000
                                        }
                                    }
                                }
                            }
                            JOINT LeftFinger1
                            {
                                OFFSET   8.364480   0.000000   3.252850
                                CHANNELS 3 Zrotation Xrotation Yrotation
                                JOINT LeftFinger11
                                {
                                    OFFSET   4.646930   0.000000   0.000000
                                    CHANNELS 3 Zrotation Xrotation Yrotation
                                    JOINT LeftFinger12
                                    {
                                        OFFSET   2.323460   0.000000   0.000000
                                        CHANNELS 3 Zrotation Xrotation Yrotation
                                        End Site
                                        {
                                            OFFSET   2.273050   0.000000   0.000000
                                        }
                                    }
                                }
                            }
                            JOINT LeftFinger2
                            {
                                OFFSET   8.364490   0.000015   1.078090
                                CHANNELS 3 Zrotation Xrotation Yrotation
                                JOINT LeftFinger21
                                {
                                    OFFSET   5.111620   0.000000   0.000000
                                    CHANNELS 3 Zrotation Xrotation Yrotation
                                    JOINT LeftFinger22
                                    {
                                        OFFSET   2.788160   0.000016   0.000000
                                        CHANNELS 3 Zrotation Xrotation Yrotation
                                        End Site
                                        {
                                            OFFSET   2.727660   0.000000   0.000000
                                        }
                                    }
                                }
                            }
                            JOINT LeftFinger3
                            {
                                OFFSET   7.899780   0.000017  -1.078090
                                CHANNELS 3 Zrotation Xrotation Yrotation
                                JOINT LeftFinger31
                                {
                                    OFFSET   4.646930   0.000000   0.000000
                                    CHANNELS 3 Zrotation Xrotation Yrotation
                                    JOINT LeftFinger32
                                    {
                                        OFFSET   2.323470   0.000000   0.000000
                                        CHANNELS 3 Zrotation Xrotation Yrotation
                                        End Site
                                        {
                                            OFFSET   2.273050   0.000000   0.000000
                                        }
                                    }
                                }
                            }
                            JOINT LeftFinger4
                            {
                                OFFSET   7.435090   0.000000  -3.252850
                                CHANNELS 3 Zrotation Xrotation Yrotation
                                JOINT LeftFinger41
                                {
                                    OFFSET   3.717550   0.000000   0.000000
                                    CHANNELS 3 Zrotation Xrotation Yrotation
                                    JOINT LeftFinger42
                                    {
                                        OFFSET   1.858770   0.000000   0.000000
                                        CHANNELS 3 Zrotation Xrotation Yrotation
                                        End Site
                                        {
                                            OFFSET   1.818440   0.000000   0.000000
                                        }
                                    }
                                }
                            }
                        }
                    }
                }
            }
            JOINT RightCollar
            {
                OFFSET  -3.911900  19.017000  -0.467063
                CHANNELS 3 Zrotation Xrotation Yrotation
                JOINT RightShoulder
                {
                    OFFSET -10.383700   0.000019   0.000000
                    CHANNELS 3 Zrotation Xrotation Yrotation
                    JOINT RightElbow
                    {
                        OFFSET -26.662100   0.001175   0.000102
                        CHANNELS 3 Zrotation Xrotation Yrotation
                        JOINT RightWrist
                        {
                            OFFSET -28.869000   0.000016  -0.000079
                            CHANNELS 3 Zrotation Xrotation Yrotation
                            JOINT RightFinger0
                            {
                                OFFSET  -2.044660  -2.323490   3.252850
                                CHANNELS 3 Zrotation Xrotation Yrotation
                                JOINT RightFinger01
                                {
                                    OFFSET  -3.088140   0.000000   0.000000
                                    CHANNELS 3 Zrotation Xrotation Yrotation
                                    JOINT RightFinger02
                                    {
                                        OFFSET  -2.639460   0.000000   0.000000
                                        CHANNELS 3 Zrotation Xrotation Yrotation
                                        End Site
                                        {
                                            OFFSET  -2.582190   0.000000   0.000000
                                        }
                                    }
                                }
                            }
                            JOINT RightFinger1
                            {
                                OFFSET  -8.364480   0.000000   3.252850
                                CHANNELS 3 Zrotation Xrotation Yrotation
                                JOINT RightFinger11
                                {
                                    OFFSET  -4.646930   0.000000   0.000000
                                    CHANNELS 3 Zrotation Xrotation Yrotation
                                    JOINT RightFinger12
                                    {
                                        OFFSET  -2.323470   0.000000   0.000000
                                        CHANNELS 3 Zrotation Xrotation Yrotation
                                        End Site
                                        {
                                            OFFSET  -2.273050   0.000000   0.000000
                                        }
                                    }
                                }
                            }
                            JOINT RightFinger2
                            {
                                OFFSET  -8.364480   0.000000   1.078090
                                CHANNELS 3 Zrotation Xrotation Yrotation
                                JOINT RightFinger21
                                {
                                    OFFSET  -5.111620   0.000000   0.000000
                                    CHANNELS 3 Zrotation Xrotation Yrotation
                                    JOINT RightFinger22
                                    {
                                        OFFSET  -2.788160   0.000000   0.000000
                                        CHANNELS 3 Zrotation Xrotation Yrotation
                                        End Site
                                        {
                                            OFFSET  -2.727660   0.000000   0.000000
                                        }
                                    }
                                }
                            }
                            JOINT RightFinger3
                            {
                                OFFSET  -7.899780   0.000000  -1.078090
                                CHANNELS 3 Zrotation Xrotation Yrotation
                                JOINT RightFinger31
                                {
                                    OFFSET  -4.646930   0.000000   0.000000
                                    CHANNELS 3 Zrotation Xrotation Yrotation
                                    JOINT RightFinger32
                                    {
                                        OFFSET  -2.323470   0.000000   0.000000
                                        CHANNELS 3 Zrotation Xrotation Yrotation
                                        End Site
                                        {
                                            OFFSET  -2.273050   0.000000   0.000000
                                        }
                                    }
                                }
                            }
                            JOINT RightFinger4
                            {
                                OFFSET  -7.435090   0.000000  -3.252850
                                CHANNELS 3 Zrotation Xrotation Yrotation
                                JOINT RightFinger41
                                {
                                    OFFSET  -3.717550   0.000000   0.000000
                                    CHANNELS 3 Zrotation Xrotation Yrotation
                                    JOINT RightFinger42
                                    {
                                        OFFSET  -1.858770   0.000000   0.000000
                                        CHANNELS 3 Zrotation Xrotation Yrotation
                                        End Site
                                        {
                                            OFFSET  -1.818440   0.000000   0.000000
                                        }
                                    }
                                }
                            }
                        }
                    }
                }
            }
        }
    }
    JOINT LeftHip
    {
        OFFSET   9.783040   0.000000   0.000000
        CHANNELS 3 Zrotation Xrotation Yrotation
        JOINT LeftKnee
        {
            OFFSET   0.000032 -41.789100  -0.002222
            CHANNELS 3 Zrotation Xrotation Yrotation
            JOINT LeftAnkle
            {
                OFFSET   0.000087 -41.133200  -0.000135
                CHANNELS 3 Zrotation Xrotation Yrotation
                JOINT LeftToe
                {
                    OFFSET   0.000000  -6.358960  14.674500
                    CHANNELS 3 Zrotation Xrotation Yrotation
                    End Site
                    {
                        OFFSET   0.000000   0.000000   3.913200
                    }
                }
            }
        }
    }
    JOINT RightHip
    {
        OFFSET  -9.783040   0.000000   0.000000
        CHANNELS 3 Zrotation Xrotation Yrotation
        JOINT RightKnee
        {
            OFFSET   0.000047 -41.789100  -0.000896
            CHANNELS 3 Zrotation Xrotation Yrotation
            JOINT RightAnkle
            {
                OFFSET  -0.000117 -41.133300  -0.000248
                CHANNELS 3 Zrotation Xrotation Yrotation
                JOINT RightToe
                {
                    OFFSET   0.000000  -6.358970  14.674500
                    CHANNELS 3 Zrotation Xrotation Yrotation
                    End Site
                    {
                        OFFSET   0.000000   0.000000   3.913200
                    }
                }
            }
        }
    }
}
MOTION
Frames: 4
Frame Time:   0.016667
  0.890615  89.548100  -0.241363  -3.549270  -9.061610  -2.400330   2.147330   6.529700   0.015845   4.335530  13.055400  -0.218597   0.253761  -0.735686  -0.000621   0.416855  -1.491890   8.753050  -6.813630  -1.977530  -2.895700 -64.260100 -10.018500 -60.352400 -12.119700 -19.417000 -89.983500 -15.206900 -43.627000 -14.383600  39.292800  26.999300 -67.260300  -1.199230   0.001845   0.000058   4.400410   0.001041  -0.004863  -9.427150   3.655550 -20.963700  -8.267200   0.003162   0.002261  -5.787030   0.009305  -0.003430 -10.369300   1.851620  -9.996350 -10.530800   0.011725   0.004790  -7.013510   0.006983   0.004444  -9.378970   0.307634  -1.853100  -9.383720   0.003057   0.002673  -6.249560   0.001828  -0.003272 -13.388900  -1.459000   6.102700 -20.201200   0.008275   0.002183 -13.453900  -0.006182   0.004862   3.530540  -3.614890  11.413500  51.499200 -21.232900  57.873900 -19.342100 -30.283800  75.321000 -13.026500 -28.641400  23.769800 -60.598300  42.380600  82.879400   0.583815  -0.002560  -0.001744  -4.708080  -0.002822   0.003880   9.236160   2.531260  15.183400   7.833360   0.004951  -0.000553   5.483350   0.003425  -0.000591  12.299400   1.080430   4.933990  12.346300   0.012023  -0.003709   8.222640   0.007633   0.000797  13.355800  -1.749600  -7.328330  13.468700   0.001279  -0.002901   8.970130   0.003878  -0.003101  15.721300  -4.471420 -15.495300  24.497100   0.009320  -0.004548  16.315100   0.001259  -0.004936   2.737290  13.713200   2.272170   0.986204   0.144526   9.869870  -1.421650  -3.793120   3.896140  -0.000000   0.000000  -0.000000   2.388080   8.209400  -3.433010   1.104700   5.028670  -3.251070  -2.378190  -3.434600  -2.195600   0.000000   0.000000   0.000000
  0.895859  89.542600  -0.228573  -3.536860  -9.027490  -2.370960   2.139850   6.531130  -0.000980   4.322400  13.057600  -0.251778   0.227153  -0.777783  -0.000666   0.373301  -1.577280   8.823910  -6.854860  -2.057760  -2.824090 -64.324200 -10.173800 -59.904500 -12.001000 -19.361800 -89.850400 -15.407200 -43.521600 -14.376200  39.311300  27.001900 -67.248700  -1.594340   0.001901   0.000115   4.202840   0.000951  -0.004950  -9.675290   3.718080 -20.821400  -8.474710   0.003346   0.002397  -5.932310   0.009575  -0.003113 -10.734500   1.883160  -9.833130 -10.895800   0.011447   0.004980  -7.256620   0.006768   0.004601  -9.715920   0.314987  -1.834600  -9.720700   0.003076   0.002444  -6.473990   0.001927  -0.003017 -13.639000  -1.441950   5.921450 -20.571300   0.008572   0.002272 -13.700400  -0.006153   0.004753   3.560990  -3.659590  11.416700  51.313400 -20.950400  57.428500 -19.622500 -30.319400  75.158900 -12.995200 -28.686300  23.574100 -60.771500  42.454400  83.037700   0.765894  -0.002719  -0.001753  -4.617050  -0.002822   0.003890   9.548760   2.635330  15.276600   8.102160   0.005147  -0.000545   5.671520   0.003577  -0.000601  12.602500   1.130520   5.036550  12.652400   0.012197  -0.003838   8.426530   0.007739   0.000857  13.819800  -1.754410  -7.103810  13.929400   0.001327  -0.003050   9.276990   0.003946  -0.003209  16.337400  -4.508410 -15.021300  25.400700   0.010470  -0.004766  16.916900   0.001503  -0.005161   2.736240  13.690100   2.261370   0.986852   0.131871   9.861520  -1.427320  -3.785680   3.890350   0.000000   0.000000   0.000000   2.375720   8.192350  -3.437410   1.119490   5.014490  -3.258450  -2.383690  -3.437810  -2.214180   0.000000   0.000000   0.000000
  0.897860  89.539600  -0.214365  -3.528180  -8.991300  -2.349480   2.130750   6.530300  -0.019871   4.306210  13.055400  -0.288827   0.200377  -0.816586  -0.000710   0.329304  -1.655840   8.902470  -6.890400  -2.118900  -2.725660 -64.384100 -10.295700 -59.447000 -11.804800 -19.352600 -89.647500 -15.796300 -43.392400 -14.495300  39.369100  27.027300 -67.227700  -1.903910   0.001947   0.000088   4.048050   0.000872  -0.005013  -9.853790   3.733620 -20.585700  -8.615450   0.003544   0.002521  -6.030840   0.009850  -0.002798 -10.939400   1.870220  -9.598190 -11.096900   0.011193   0.005163  -7.390500   0.006551   0.004749  -9.918060   0.317503  -1.835890  -9.923270   0.003087   0.002199  -6.608920   0.002029  -0.002757 -13.839300  -1.421450   5.745550 -20.867200   0.008871   0.002342 -13.897500  -0.006145   0.004650   3.588400  -3.674320  11.429100  51.182400 -20.651400  56.971400 -19.941500 -30.298500  74.963500 -12.928000 -28.621600  23.394200 -60.984900  42.547200  83.254300   0.936643  -0.002873  -0.001783  -4.531680  -0.002822   0.003891   9.748220   2.712410  15.392200   8.276270   0.005347  -0.000533   5.793380   0.003654  -0.000613  12.805600   1.165710   5.106140  12.858000   0.012361  -0.003964   8.563450   0.007837   0.000919  14.234600  -1.753140  -6.883110  14.341200   0.001388  -0.003191   9.551240   0.004015  -0.003325  16.894300  -4.512680 -14.528200  26.207900   0.011621  -0.004983  17.454500   0.001759  -0.005396   2.736030  13.674000   2.261280   0.988047   0.099800   9.848090  -1.434580  -3.767520   3.887670   0.000000   0.000000   0.000000   2.366180   8.169770  -3.456030   1.130740   4.998970  -3.242780  -2.389190  -3.435000  -2.229270  -0.000000   0.000000  -0.000000
  0.898146  89.537100  -0.198596  -3.523960  -8.955830  -2.340580   2.121660   6.527810  -0.036858   4.289780  13.049700  -0.321966   0.173752  -0.852462  -0.000753   0.285623  -1.728420   8.977000  -6.923170  -2.171520  -2.620930 -64.460100 -10.423200 -58.966400 -11.570700 -19.339600 -89.384000 -16.169100 -43.311400 -14.610200  39.482000  27.080300 -67.178000  -2.053170   0.001996   0.000061   3.973420   0.000805  -0.005073  -9.976380   3.740920 -20.342500  -8.711250   0.003742   0.002642  -6.097900   0.010123  -0.002487 -11.018800   1.844840  -9.380630 -11.169900   0.010956   0.005343  -7.439120   0.006339   0.004893  -9.998420   0.324400  -1.844950 -10.004200   0.003091   0.001948  -6.662830   0.002131  -0.002494 -14.025700  -1.392560   5.547080 -21.141500   0.009158   0.002412 -14.080200  -0.006141   0.004547   3.613640  -3.686610  11.439200  51.053300 -20.331000  56.489900 -20.262700 -30.217800  74.718800 -12.943100 -28.490000  23.197200 -61.167000  42.626300  83.423100   1.108100  -0.003030  -0.001819  -4.445950  -0.002820   0.003891   9.926740   2.781190  15.477600   8.431770   0.005548  -0.000521   5.902230   0.003888  -0.000626  13.022900   1.201980   5.167270  13.077800   0.012515  -0.004086   8.709800   0.007934   0.000981  14.732100  -1.747910  -6.632690  14.835100   0.001472  -0.003330   9.880170   0.004084  -0.003438  17.517800  -4.505520 -13.977300  27.110400   0.012747  -0.005205  18.055500   0.002025  -0.005636   2.736370  13.662300   2.261230   0.988566   0.066983   9.840080  -1.442520  -3.754470   3.887240  -0.000000   0.000000   0.000000   2.359610   8.156080  -3.479630   1.141450   4.977460  -3.218460  -2.396000  -3.428560  -2.236580  -0.000000   0.000000  -0.000000
